<?xml version="1.0" encoding="UTF-8"?><svg id="Capa_2" xmlns="http://www.w3.org/2000/svg" viewBox="0 0 489.84 489.84"><defs><style>.cls-1{fill:#5e4595;}.cls-1,.cls-2,.cls-3{stroke-width:0px;}.cls-2{fill:#e367a7;}.cls-3{fill:#fff;}</style></defs><g id="Capa_1-2"><path class="cls-2" d="M244.92,489.84c135.27,0,244.92-109.66,244.92-244.92S380.19,0,244.92,0,0,109.66,0,244.92s109.66,244.92,244.92,244.92Z"/><path class="cls-3" d="M315.18,138.05h-35.62v-17.81c0-9.84-7.97-17.81-17.81-17.81h-35.62c-9.84,0-17.81,7.97-17.81,17.81v17.81h-35.62c-14.76,0-26.72,11.96-26.72,26.72v195.94c0,14.76,11.96,26.72,26.72,26.72h142.5c14.76,0,26.72-11.96,26.72-26.72v-195.94c0-14.76-11.96-26.72-26.72-26.72Z"/><path class="cls-1" d="M282.77,187.03l-93.52,93.52h46.76l-15.59,62.34,93.52-93.52h-46.76l15.59-62.34Z"/></g></svg>