<?xml version="1.0" encoding="UTF-8"?><svg id="Capa_2" xmlns="http://www.w3.org/2000/svg" viewBox="0 0 483.18 483.18"><defs><style>.cls-1{fill:#5e4595;}.cls-1,.cls-2,.cls-3{stroke-width:0px;}.cls-2{fill:#e367a7;}.cls-3{fill:#fff;}</style></defs><g id="Capa_1-2"><path class="cls-2" d="M241.59,483.18c133.43,0,241.59-108.16,241.59-241.59S375.02,0,241.59,0,0,108.16,0,241.59s108.16,241.59,241.59,241.59Z"/><path class="cls-3" d="M258.67,188.39l-105.42,39.53v102.79c-7.14-2.27-15.71-2.43-24.35.09-18.63,5.43-30.43,21.17-26.36,35.14s22.49,20.9,41.11,15.46c16.59-4.84,27.73-17.84,27.1-30.49h.06v-87.85l70.28-26.36v72.05c-7.14-2.27-15.71-2.43-24.35.09-18.63,5.43-30.43,21.17-26.36,35.14s22.49,20.9,41.11,15.46c16.59-4.84,27.73-17.84,27.1-30.49h.06v-140.56h0Z"/><path class="cls-1" d="M189.94,87.96v61.44c-11.27,0-20.18,10.12-18.14,21.77,1.3,7.41,7.38,13.5,14.8,14.8,11.65,2.04,21.77-6.86,21.77-18.14v-64.94l43-12.29v34.23c-11.27,0-20.18,10.12-18.14,21.77,1.3,7.41,7.38,13.5,14.8,14.8,11.65,2.04,21.77-6.86,21.77-18.14v-76.59l-79.87,21.3Z"/><path class="cls-1" d="M294.64,207.15v50.46c-9.26,0-16.58,8.31-14.9,17.88,1.07,6.09,6.06,11.09,12.15,12.15,9.57,1.68,17.88-5.64,17.88-14.9v-53.34l35.32-10.09v28.11c-9.26,0-16.58,8.31-14.9,17.88,1.07,6.09,6.06,11.09,12.15,12.15,9.57,1.68,17.88-5.64,17.88-14.9v-62.91l-65.6,17.49Z"/><path class="cls-1" d="M307.03,115.42v33.74c-6.19,0-11.08,5.56-9.96,11.96.71,4.07,4.05,7.41,8.13,8.13,6.4,1.12,11.96-3.77,11.96-9.96v-35.67l23.62-6.75v18.8c-6.19,0-11.08,5.56-9.96,11.96.71,4.07,4.05,7.41,8.13,8.13,6.4,1.12,11.96-3.77,11.96-9.96v-42.06l-43.86,11.7Z"/></g></svg>