<?xml version="1.0" encoding="UTF-8"?><svg id="Capa_2" xmlns="http://www.w3.org/2000/svg" viewBox="0 0 514.28 514.28"><defs><style>.cls-1{fill:#5e4595;}.cls-1,.cls-2,.cls-3{stroke-width:0px;}.cls-2{fill:#e367a7;}.cls-3{fill:#fff;}</style></defs><g id="Capa_1-2"><path class="cls-2" d="M257.14,514.28c142.01,0,257.14-115.12,257.14-257.14S399.15,0,257.14,0,0,115.12,0,257.14s115.12,257.14,257.14,257.14Z"/><path class="cls-3" d="M313.77,407.27h46.75c-32.72-51.42-70.84-124-98.38-202.78-.63-1.81-2.46-2.94-4.38-2.92-1.92.02-3.68,1.2-4.32,3.01-26.53,76.46-65.89,151.26-98.62,202.69h46.75c5.01-8.97,9.68-18.38,14.16-28.05h83.87c4.48,9.67,9.15,19.08,14.16,28.05ZM257.68,257.93c4.62,17.51,9.59,34.57,14.92,51.16h-29.83c5.33-16.59,10.29-33.65,14.91-51.16ZM223.95,360.51c4.39-10.59,8.53-21.52,12.46-32.73h42.55c3.92,11.21,8.06,22.14,12.46,32.73,0,0-67.46,0-67.46,0Z"/><path class="cls-1" d="M297.26,158.74c0,2.19.92,4.36,2.7,5.9,5.15,4.45,8.11,10.9,8.11,17.7s-2.88,13.09-7.91,17.53c-3.23,2.85-3.53,7.77-.68,11,2.85,3.23,7.77,3.53,11,.68,8.37-7.4,13.17-18.04,13.17-29.21s-4.92-22.09-13.51-29.5c-3.26-2.81-8.18-2.45-10.99.81-1.27,1.47-1.89,3.28-1.89,5.09Z"/><path class="cls-1" d="M333.78,223.85c0,2.14.88,4.27,2.6,5.81,3.21,2.87,8.13,2.59,11-.62,11.49-12.86,17.82-29.44,17.82-46.71s-6.2-33.52-17.47-46.31c-2.84-3.23-7.77-3.54-11-.7-3.23,2.84-3.54,7.77-.7,11,8.76,9.95,13.59,22.74,13.59,36.02s-4.92,26.32-13.86,36.32c-1.33,1.49-1.98,3.34-1.98,5.19Z"/><path class="cls-1" d="M363.44,119.79c0,2.12.86,4.24,2.56,5.78,15.99,14.48,25.16,35.15,25.16,56.71s-9.14,42.15-25.07,56.63c-3.18,2.89-3.42,7.82-.53,11.01s7.82,3.42,11.01.53c19.18-17.42,30.17-42.27,30.17-68.16s-11.04-50.83-30.28-68.26c-3.19-2.89-8.12-2.65-11.01.55-1.35,1.49-2.02,3.36-2.02,5.22Z"/><path class="cls-1" d="M217.02,158.74c0,2.19-.92,4.36-2.7,5.9-5.15,4.45-8.11,10.9-8.11,17.7s2.88,13.09,7.91,17.53c3.23,2.85,3.53,7.77.68,11-2.85,3.23-7.77,3.53-11,.68-8.37-7.4-13.17-18.04-13.17-29.21s4.92-22.09,13.51-29.5c3.26-2.81,8.18-2.45,10.99.81,1.27,1.47,1.89,3.28,1.89,5.09Z"/><path class="cls-1" d="M180.5,223.85c0,2.14-.88,4.27-2.6,5.81-3.21,2.87-8.13,2.59-11-.62-11.49-12.86-17.82-29.44-17.82-46.71s6.2-33.52,17.47-46.31c2.84-3.23,7.77-3.54,11-.7,3.23,2.84,3.54,7.77.7,11-8.76,9.95-13.59,22.74-13.59,36.02s4.92,26.32,13.86,36.32c1.33,1.49,1.98,3.34,1.98,5.19Z"/><path class="cls-1" d="M150.83,119.79c0,2.12-.86,4.24-2.56,5.78-15.99,14.48-25.16,35.15-25.16,56.71s9.14,42.15,25.07,56.63c3.18,2.89,3.42,7.82.53,11.01s-7.82,3.42-11.01.53c-19.18-17.42-30.17-42.27-30.17-68.16s11.04-50.83,30.28-68.26c3.19-2.89,8.12-2.65,11.01.55,1.35,1.49,2.02,3.36,2.02,5.22Z"/></g></svg>