<?xml version="1.0" encoding="UTF-8"?><svg id="Capa_2" xmlns="http://www.w3.org/2000/svg" viewBox="0 0 531.52 531.52"><defs><style>.cls-1{fill:#5e4595;}.cls-1,.cls-2,.cls-3{stroke-width:0px;}.cls-2{fill:#e367a7;}.cls-3{fill:#fff;}</style></defs><g id="Capa_1-2"><path class="cls-2" d="M265.76,531.52c146.78,0,265.76-118.98,265.76-265.76S412.54,0,265.76,0,0,118.98,0,265.76s118.98,265.76,265.76,265.76Z"/><path class="cls-3" d="M323.21,420.39h-115.97c-16.01,0-28.99-12.98-28.99-28.99v-251.27c0-16.01,12.98-28.99,28.99-28.99h115.97c16.01,0,28.99,12.98,28.99,28.99v251.27c0,16.01-12.98,28.99-28.99,28.99Z"/><path class="cls-1" d="M342.54,169.12h-154.62v193.28h154.62v-193.28Z"/><path class="cls-1" d="M231.94,149.79c2.67,0,4.83-2.16,4.83-4.83s-2.16-4.83-4.83-4.83-4.83,2.16-4.83,4.83,2.16,4.83,4.83,4.83Z"/><path class="cls-1" d="M304.42,144.96c0,2.67-2.16,4.83-4.83,4.83h-48.32c-2.67,0-4.83-2.16-4.83-4.83s2.16-4.83,4.83-4.83h48.32c2.67,0,4.83,2.16,4.83,4.83Z"/><path class="cls-1" d="M265.76,410.72c10.67,0,19.33-8.65,19.33-19.33s-8.65-19.33-19.33-19.33-19.33,8.65-19.33,19.33,8.65,19.33,19.33,19.33Z"/></g></svg>