<?xml version="1.0" encoding="UTF-8"?><svg id="Capa_2" xmlns="http://www.w3.org/2000/svg" viewBox="0 0 716.72 716.72"><defs><style>.cls-1{fill:#5e4595;}.cls-1,.cls-2,.cls-3{stroke-width:0px;}.cls-2{fill:#e367a7;}.cls-3{fill:#fff;}</style></defs><g id="Capa_1-2"><path class="cls-2" d="M358.36,716.72c197.92,0,358.36-160.44,358.36-358.36S556.28,0,358.36,0,0,160.44,0,358.36s160.44,358.36,358.36,358.36Z"/><path class="cls-3" d="M436.55,332.3c0,43.18-35.01,78.19-78.19,78.19s-78.19-35.01-78.19-78.19,78.19-182.44,78.19-182.44c0,0,78.19,139.26,78.19,182.44Z"/><path class="cls-1" d="M358.36,534.28c-111.52,0-202.6-39.67-208.23-89.58-.11,1.62-.27,3.24-.27,4.87,0,64.77,93.35,117.28,208.5,117.28s208.5-52.51,208.5-117.28c0-1.64-.16-3.25-.27-4.87-5.63,49.9-96.7,89.58-208.23,89.58Z"/><path class="cls-1" d="M358.36,456.09c-66.36,0-123.41-20.64-148.8-50.25-.11,1.15-.23,2.31-.23,3.48,0,40.22,66.72,72.83,149.03,72.83s149.03-32.61,149.03-72.83c0-1.17-.12-2.32-.23-3.48-25.38,29.61-82.44,50.25-148.8,50.25Z"/></g></svg>