<?xml version="1.0" encoding="UTF-8"?><svg id="Capa_2" xmlns="http://www.w3.org/2000/svg" viewBox="0 0 728.47 728.47"><defs><style>.cls-1{fill:#5e4595;}.cls-1,.cls-2,.cls-3{stroke-width:0px;}.cls-2{fill:#e367a7;}.cls-3{fill:#fff;}</style></defs><g id="Capa_1-2"><path class="cls-2" d="M364.23,728.47c201.16,0,364.23-163.07,364.23-364.23S565.4,0,364.23,0,0,163.07,0,364.23s163.07,364.23,364.23,364.23Z"/><path class="cls-3" d="M424.23,528.73c92.84,0,168.09-75.26,168.09-168.09s-75.26-168.09-168.09-168.09-168.09,75.26-168.09,168.09,75.26,168.09,168.09,168.09Z"/><path class="cls-1" d="M424.23,490.53c71.74,0,129.89-58.15,129.89-129.89s-58.15-129.89-129.89-129.89-129.89,58.15-129.89,129.89,58.15,129.89,129.89,129.89Z"/><path class="cls-3" d="M355.47,360.64c0,4.22-3.42,7.64-7.64,7.64h-15.28c-4.22,0-7.64-3.42-7.64-7.64s3.42-7.64,7.64-7.64h15.28c4.22,0,7.64,3.42,7.64,7.64Z"/><path class="cls-3" d="M493,360.64c0,4.22,3.42,7.64,7.64,7.64h15.28c4.22,0,7.64-3.42,7.64-7.64s-3.42-7.64-7.64-7.64h-15.28c-4.22,0-7.64,3.42-7.64,7.64Z"/><path class="cls-3" d="M375.61,312.02c-2.99,2.99-7.82,2.99-10.8,0l-10.8-10.8c-2.99-2.99-2.99-7.82,0-10.8,2.99-2.99,7.82-2.99,10.8,0l10.8,10.8c2.99,2.98,2.99,7.82,0,10.8Z"/><path class="cls-3" d="M472.86,312.02c-2.99-2.99-2.99-7.82,0-10.8l10.8-10.8c2.99-2.99,7.82-2.99,10.8,0,2.99,2.99,2.99,7.82,0,10.8l-10.8,10.8c-2.98,2.99-7.82,2.99-10.8,0Z"/><path class="cls-3" d="M472.86,409.27c2.99-2.99,7.82-2.99,10.8,0l10.8,10.8c2.99,2.99,2.99,7.82,0,10.8-2.99,2.99-7.82,2.99-10.8,0l-10.8-10.8c-2.99-2.98-2.99-7.82,0-10.8Z"/><path class="cls-3" d="M375.61,409.27c-2.99-2.99-7.82-2.99-10.8,0l-10.8,10.8c-2.99,2.99-2.99,7.82,0,10.8,2.99,2.99,7.82,2.99,10.8,0l10.8-10.8c2.99-2.98,2.99-7.82,0-10.8Z"/><path class="cls-3" d="M427.63,429.41c4.22,0,7.64,3.42,7.64,7.64v15.28c0,4.22-3.42,7.64-7.64,7.64s-7.64-3.42-7.64-7.64v-15.28c0-4.22,3.42-7.64,7.64-7.64Z"/><path class="cls-3" d="M463.92,402.08c-2.65,2.65-6.85,2.95-9.86.7l-35.12-29.79c-2.63-1.97-4.27-4.99-4.51-8.27-.24-3.28.97-6.49,3.29-8.82s5.55-3.52,8.83-3.29c3.28.24,6.3,1.88,8.27,4.51l29.79,35.12c2.25,3,1.96,7.2-.7,9.85Z"/><path class="cls-3" d="M437.71,360.66c.33,3.92-1,7.79-3.67,10.69-2.66,2.9-6.42,4.54-10.35,4.54s-7.69-1.64-10.35-4.54c-2.66-2.9-3.99-6.77-3.67-10.69l5.74-84.1c.36-4.3,3.96-7.61,8.28-7.61s7.92,3.31,8.27,7.62l5.73,84.09Z"/><path class="cls-1" d="M226.24,260.43c3.92-.33,7.79,1,10.69,3.67,2.9,2.66,4.54,6.42,4.54,10.35s-1.64,7.69-4.54,10.35c-2.9,2.66-6.77,3.99-10.69,3.67l-84.1-5.74c-4.3-.36-7.61-3.96-7.61-8.28s3.31-7.92,7.62-8.27l84.09-5.73Z"/><path class="cls-1" d="M195.24,347.44c3.92-.33,7.79,1,10.69,3.67,2.9,2.66,4.54,6.42,4.54,10.35s-1.64,7.69-4.54,10.35c-2.9,2.66-6.77,3.99-10.69,3.67l-84.1-5.74c-4.3-.36-7.61-3.96-7.61-8.28s3.31-7.92,7.62-8.27l84.09-5.73Z"/><path class="cls-1" d="M211.24,425.44c3.92-.33,7.79,1,10.69,3.67,2.9,2.66,4.54,6.42,4.54,10.35s-1.64,7.69-4.54,10.35c-2.9,2.66-6.77,3.99-10.69,3.67l-84.1-5.74c-4.3-.36-7.61-3.96-7.61-8.28s3.31-7.92,7.62-8.27l84.09-5.73Z"/></g></svg>