<?xml version="1.0" encoding="UTF-8"?><svg id="Capa_2" xmlns="http://www.w3.org/2000/svg" viewBox="0 0 703.18 703.18"><defs><style>.cls-1{fill:#5e4595;}.cls-1,.cls-2,.cls-3{stroke-width:0px;}.cls-2{fill:#e367a7;}.cls-3{fill:#fff;}</style></defs><g id="Capa_1-2"><path class="cls-2" d="M351.59,703.18c194.18,0,351.59-157.41,351.59-351.59S545.77,0,351.59,0,0,157.41,0,351.59s157.41,351.59,351.59,351.59Z"/><path class="cls-3" d="M196.11,296.53h-25.57c-28.24,0-51.14,22.9-51.14,51.14s22.89,51.14,51.14,51.14h25.57s117.47,100.88,117.47,100.88c1.92,1.54,4.55,1.84,6.76.77s3.62-3.3,3.62-5.76V200.64c0-2.46-1.41-4.7-3.62-5.76s-4.84-.76-6.76.77c0,0-117.47,100.89-117.47,100.89Z"/><path class="cls-1" d="M529.64,350.55c0,59.01-24.93,112.06-64.82,149.39-4.98,4.73-12.85,4.6-17.71-.26l-.19-.19c-5.05-5.05-4.92-13.29.38-18.22,34.96-32.67,56.77-79.14,56.77-130.73,0-51.59-21.83-98.08-56.8-130.73-5.25-4.9-5.43-13.13-.35-18.21l.18-.18c4.88-4.88,12.74-4.94,17.77-.23,39.87,37.32,64.77,90.41,64.77,149.35Z"/><path class="cls-1" d="M478.5,350.55c0,44.92-19.35,85.37-50.14,113.37-4.98,4.53-12.66,4.35-17.43-.41l-.19-.19c-5.17-5.17-4.79-13.5.61-18.44,25.55-23.39,41.59-56.94,41.59-94.33,0-37.39-16.02-70.99-41.6-94.35-5.39-4.92-5.77-13.24-.61-18.4l.18-.18c4.78-4.78,12.5-4.96,17.49-.41,30.77,28,50.11,68.41,50.1,113.34Z"/><path class="cls-1" d="M427.36,350.55c0,31.01-13.81,58.81-35.61,77.61-4.92,4.28-12.4,3.77-17.01-.83l-.19-.19c-5.18-5.18-4.92-13.68.64-18.54,16.3-14.06,26.6-34.84,26.59-58.04,0-23.19-10.3-43.99-26.56-58.07-5.56-4.81-5.87-13.31-.67-18.51l.19-.19c4.65-4.65,12.16-5.06,17.14-.77,21.75,18.76,35.48,46.55,35.48,77.53Z"/></g></svg>